<?xml version="1.0" encoding="utf-8"?>
<!-- Generator: Adobe Illustrator 26.3.1, SVG Export Plug-In . SVG Version: 6.00 Build 0)  -->
<svg version="1.1" id="Capa_1" xmlns="http://www.w3.org/2000/svg" xmlns:xlink="http://www.w3.org/1999/xlink" x="0px" y="0px"
	 width="96px" height="96px" viewBox="0 0 96 96" enable-background="new 0 0 96 96" xml:space="preserve">
<circle fill="#FFFFFF" cx="48" cy="48" r="47"/>
<g>
	<path fill="#C44949" d="M42.6,23.7c0.4-0.1,0.8-0.1,1.2-0.2c-0.5,0-1.1,0.1-1.6,0.1c-0.1,0.1-0.1,0.1-0.2,0.2
		C42.2,23.7,42.4,23.7,42.6,23.7z"/>
	<path fill="#C44949" d="M40.4,34.7c0-0.9,0.1-1.8,0.1-2.7c0.1-2.3,0.2-4.3,0.3-5.7c0-0.5,0.1-0.9,0.1-1.3c-0.8,0.9-1.5,1.7-2.1,2.6
		v9.4C39.2,36.3,39.8,35.5,40.4,34.7z"/>
	<path fill="#C44949" d="M41,26.4c0.1,1.4,0.2,3.3,0.3,5.7c0,0.5,0,1,0.1,1.5c2.1-2.6,4.7-5.3,7.5-7.9c0.4-0.4,0.9-0.8,1.3-1.3
		c-0.2,0-0.4,0-0.6,0c-0.6,0-1.2-0.1-1.8-0.1c-0.6,0-1.2-0.1-1.8-0.1c-0.6,0-1.2,0-1.7,0c-0.6,0-1.1,0-1.6,0c-0.4,0-0.7,0-1.1,0
		c-0.2,0.3-0.5,0.5-0.7,0.8C40.9,25.3,41,25.8,41,26.4z"/>
	<path fill="#5C78A1" d="M53.2,39c1.5-1.6,3-3.2,4.3-4.8L57,25.3c-0.1,0-0.2,0-0.3,0c-1,1.3-2,2.7-3.2,4.1L53.2,39z"/>
	<path fill="#5C78A1" d="M41.5,44.6c0,1.5,0,3.1,0,4.7c0,0.6,0,1.2,0,1.8c0.2-0.2,0.3-0.4,0.5-0.6c0-0.2,0-0.5,0-0.7
		c0-0.7,0-1.4,0.1-2c0-0.6,0.1-1.3,0.1-1.8c0.1-2.3,0.3-3.8,0.3-3.8s0.2,1.5,0.3,3.8c0,0.6,0.1,1.2,0.1,1.8c0,0.6,0,1.2,0.1,1.8
		c1.8-2,3.8-4,5.8-6c1.2-1.1,2.3-2.2,3.4-3.3l-0.3-8.8c-2.2,2.5-4.7,5.2-7.4,7.8c-1,1-2,2-2.9,3C41.5,42.9,41.5,43.7,41.5,44.6z"/>
	<path fill="#5C78A1" d="M40.2,43.5c-0.5,0.6-1,1.3-1.5,1.9v9.4c0.5-0.7,1-1.4,1.5-2.1c0-1.2,0-2.3,0-3.5c0-1.6,0-3.1,0-4.7
		C40.2,44.2,40.2,43.9,40.2,43.5z"/>
	<path fill="#C44949" d="M52.7,55.3l-0.2-7c-2.3,2.7-5,5.6-8,8.5c-0.5,0.5-1,1-1.5,1.5c0,0.1,0,0.2,0,0.2c0,0.7,0,1.4-0.1,2
		c0,0.6-0.1,1.3-0.1,1.8c-0.1,2.3-0.3,3.8-0.3,3.8s-0.2-1.5-0.3-3.8c0-0.6-0.1-1.2-0.1-1.8c0-0.4,0-0.9,0-1.4
		c-0.2,0.2-0.4,0.5-0.7,0.7c0,1,0,1.9-0.1,2.8c0,1.3-0.1,2.6-0.1,3.8c0,1-0.1,1.9-0.1,2.7c2.2-2.6,4.9-5.4,7.6-8
		c1.9-1.8,3.6-3.6,5.3-5.3l0.2-9.7c-0.4,0.6-0.9,1.1-1.4,1.7L52.7,55.3z"/>
	<path fill="#C44949" d="M54.4,46l0.2,9.2c1-1.1,1.9-2.2,2.8-3.2l0.3-8.4l0,0.4v-2.3C56.7,43,55.6,44.4,54.4,46z"/>
	<path fill="#C44949" d="M40.5,66.4c0-1.2-0.1-2.4-0.1-3.8c0-0.5,0-1,0-1.5c-0.6,0.7-1.1,1.3-1.6,2v9.3c0.6-0.9,1.2-1.7,1.9-2.6
		C40.6,68.8,40.5,67.7,40.5,66.4z"/>
	<path fill="#5C78A1" d="M44.7,74.3c0.1,0,0.3,0,0.4,0c0.3,0,0.6,0,0.9,0c0.6,0,1.2-0.1,1.8-0.1c0.6,0,1.2-0.1,1.8-0.1
		c0.6-0.1,1.2-0.1,1.7-0.2c0.6-0.1,1.1-0.1,1.6-0.2c0.3,0,0.6-0.1,0.8-0.1l0.2-9.2C51.3,67.5,48.2,71,44.7,74.3z"/>
	<path fill="#5C78A1" d="M55,72.5c0.6-0.7,1.2-1.4,1.8-2.1l0.3-10.3c-0.7,1-1.5,2-2.4,3.1L55,72.5z"/>
	<path fill="#3F3F3F" d="M63.1,14c-0.3-3.1-1.8-6.2-4.3-8.7C55.9,2.5,52.1,1,48.2,1l0,0l0,0c-3.9,0-7.7,1.5-10.5,4.3
		c-2.5,2.4-4,5.5-4.3,8.7c-0.8,0.4-1.3,1.2-1.3,2.1v1.6c0,0.7,0.4,1.4,1,1.7v0.6c0,0.5,0.2,1,0.6,1.4c0.2,0.2,0.4,0.3,0.7,0.4v0.5
		c0,0.9,0.6,1.7,1.5,1.9v50.2c-0.9,0.2-1.5,0.9-1.5,1.9v0.5c-0.3,0.1-0.5,0.2-0.7,0.4c-0.4,0.4-0.6,0.9-0.6,1.4V79
		c-0.1,0.1-0.3,0.2-0.4,0.3c-0.4,0.4-0.6,0.9-0.6,1.4v1.6c0,0.9,0.5,1.6,1.2,2c0.3,3.3,1.8,6,4.5,7.9C40.3,94,43.9,95,48.1,95l0.1,0
		l0.1,0c4.2,0,7.8-1,10.4-2.8c2.7-1.9,4.2-4.6,4.5-7.9c0.7-0.4,1.2-1.2,1.2-2v-1.6c0-0.5-0.2-1-0.6-1.4c-0.1-0.1-0.3-0.2-0.4-0.3
		v-0.6c0-0.8-0.5-1.6-1.3-1.8v-0.5c0-0.9-0.6-1.7-1.5-1.9V24.1c0.9-0.2,1.5-0.9,1.5-1.9v-0.5c0.7-0.3,1.3-1,1.3-1.8v-0.6
		c0.1-0.1,0.3-0.2,0.4-0.3c0.4-0.4,0.6-0.9,0.6-1.4v-1.6C64.4,15.2,63.8,14.4,63.1,14z M36.9,90.2c-0.1-0.1-0.3-0.3-0.4-0.4
		c-0.1-0.1-0.2-0.3-0.4-0.4c-0.2-0.3-0.4-0.6-0.6-0.8c-0.1-0.3-0.3-0.5-0.4-0.8C35,87.4,35,87.2,34.9,87c0-0.1-0.1-0.2-0.1-0.3
		c0-0.1,0-0.2-0.1-0.3c0-0.1,0-0.1,0-0.2c-0.1-0.5-0.2-1-0.3-1.6c4.6,0.7,9.2,1,13.8,1s9.3-0.3,13.8-1c0,0.3-0.1,0.6-0.2,0.9
		c0,0,0,0-0.1,0c-0.2,0-0.5,0.1-0.8,0.2c-0.7,0.1-1.7,0.3-2.9,0.5c-0.6,0.1-1.3,0.2-2,0.3c-0.7,0.1-1.4,0.2-2.2,0.2
		c-0.8,0.1-1.6,0.1-2.4,0.2C50.7,87,49.8,87,49,87c-0.4,0-0.8,0-1.2,0c-0.4,0-0.8,0-1.2,0c-0.8,0-1.6,0-2.4,0
		c-0.8,0-1.5-0.1-2.2-0.1c-0.4,0-0.7,0-1-0.1c-0.3,0-0.7-0.1-1-0.1c-0.6-0.1-1.2-0.1-1.7-0.2c-0.5-0.1-0.9-0.1-1.3-0.2
		c-0.7-0.1-1.1-0.2-1.1-0.2s0.4,0.1,1.1,0.2c0.4,0.1,0.8,0.2,1.3,0.3c0.5,0.1,1.1,0.2,1.7,0.3c0.3,0,0.6,0.1,1,0.1
		c0.3,0,0.7,0.1,1,0.1c0.7,0.1,1.5,0.2,2.2,0.2c0.8,0.1,1.6,0.1,2.4,0.2c0.4,0,0.8,0,1.2,0.1c0.4,0,0.8,0,1.2,0c0.8,0,1.7,0,2.5,0
		c0.8,0,1.6,0,2.4-0.1c0,0,0,0,0,0c-1.9,0.5-5,1-8.7,0.9c-4.9-0.1-7.4,0.8-6.5,2.6c0.1,0,0.1,0.1,0.2,0.1c0.1,0.1,0.2,0.1,0.3,0.2
		c0.1,0,0.2,0.1,0.3,0.1c0.2,0.1,0.4,0.2,0.6,0.3c0.2,0.1,0.4,0.2,0.6,0.3c0.1,0,0.2,0.1,0.3,0.1c0.1,0,0.2,0.1,0.3,0.1
		c0.2,0.1,0.5,0.1,0.7,0.2c0.2,0.1,0.5,0.1,0.7,0.2c0.5,0.1,1,0.2,1.5,0.3c0.2,0,0.5,0.1,0.7,0.1c0.2,0,0.5,0.1,0.8,0.1
		c0.5,0,1,0.1,1.5,0.1l0.8,0l0.8,0c0.5,0,1,0,1.5-0.1c1-0.1,2-0.2,2.9-0.4c0.9-0.2,1.8-0.5,2.6-0.8c0.4-0.2,0.8-0.4,1.1-0.5
		c0.2-0.1,0.4-0.2,0.5-0.3c0.2-0.1,0.3-0.2,0.5-0.3c0.3-0.2,0.6-0.4,0.9-0.7c0.1-0.1,0.3-0.2,0.4-0.3c0.1-0.1,0.2-0.2,0.3-0.3
		c0.1-0.1,0.2-0.2,0.3-0.3c0.1-0.1,0.2-0.2,0.3-0.3c0.1-0.1,0.2-0.2,0.2-0.3c0.1-0.1,0.1-0.2,0.2-0.3c0.1-0.2,0.2-0.4,0.3-0.5
		c0.1-0.2,0.1-0.3,0.2-0.4c0.1-0.2,0.2-0.3,0.2-0.3s0,0.1-0.1,0.3c0,0.1-0.1,0.2-0.2,0.4c-0.1,0.2-0.2,0.3-0.3,0.5
		c-0.1,0.1-0.1,0.2-0.2,0.3c-0.1,0.1-0.1,0.2-0.2,0.3c-0.1,0.1-0.2,0.2-0.2,0.3c-0.1,0.1-0.2,0.2-0.3,0.4c-0.1,0.1-0.2,0.2-0.3,0.4
		c-0.1,0.1-0.2,0.2-0.4,0.4c-0.2,0.3-0.6,0.5-0.9,0.7c-0.2,0.1-0.3,0.2-0.5,0.3c-0.2,0.1-0.3,0.2-0.5,0.3c-0.4,0.2-0.7,0.4-1.2,0.6
		c-0.8,0.4-1.7,0.7-2.7,0.9c-0.2,0.1-0.5,0.1-0.7,0.2c-0.2,0-0.5,0.1-0.7,0.1l-0.4,0.1l-0.4,0c-0.3,0-0.5,0.1-0.8,0.1
		c-0.5,0-1,0.1-1.5,0.1l-0.8,0l-0.8,0c-0.5,0-1-0.1-1.6-0.1c-0.3,0-0.5-0.1-0.8-0.1c-0.3,0-0.5-0.1-0.8-0.1c-0.5-0.1-1-0.2-1.5-0.3
		c-0.2-0.1-0.5-0.1-0.7-0.2c-0.2-0.1-0.5-0.2-0.7-0.2c-0.1,0-0.2-0.1-0.3-0.1c-0.1,0-0.2-0.1-0.3-0.1c-0.2-0.1-0.4-0.2-0.7-0.3
		c-0.2-0.1-0.4-0.2-0.6-0.3c-0.1-0.1-0.2-0.1-0.3-0.2c-0.1-0.1-0.2-0.1-0.3-0.2c-0.2-0.1-0.4-0.2-0.6-0.4c-0.2-0.1-0.3-0.3-0.5-0.4
		C37.4,90.7,37.1,90.4,36.9,90.2z M33.1,82.3c0-0.5,0-1,0-1.6c0-0.5,0.4-0.9,0.8-0.9c0,0,0.1,0,0.1,0c0-0.5,0-1,0-1.5
		c0-0.5,0.4-0.8,0.8-0.8c0,0,0.1,0,0.1,0c0.1,0,0.2,0,0.3,0c0-0.5,0-1,0-1.5c0-0.5,0.3-0.8,0.8-0.8c0,0,0.1,0,0.1,0
		c4,0.5,8,0.7,11.9,0.7c2.4,0,4.7-0.1,7.1-0.3l-3.7,0.5c0.3,0.6,0.4,1.2,0.4,1.6c-0.2,0-0.4,0-0.6,0.1c-0.8,0.1-1.6,0.1-2.4,0.2
		c-0.8,0.1-1.6,0.1-2.4,0.1c-0.8,0-1.6,0-2.4,0c-0.8,0-1.5,0-2.2-0.1c-0.7,0-1.4-0.1-2-0.1c-0.6,0-1.2-0.1-1.7-0.1
		c-0.5,0-0.9-0.1-1.3-0.1c-0.7-0.1-1.1-0.1-1.1-0.1s0.4,0.1,1.1,0.2c0.4,0.1,0.8,0.1,1.3,0.2c0.5,0.1,1.1,0.1,1.7,0.2
		c0.6,0.1,1.3,0.1,2,0.2c0.7,0.1,1.4,0.1,2.2,0.2c0.8,0,1.6,0.1,2.4,0.1c0.8,0,1.6,0,2.5,0c0.8,0,1.6,0,2.5,0c0.8,0,1.6-0.1,2.4-0.1
		c0.4,0,0.8,0,1.1-0.1c0.4,0,0.7-0.1,1.1-0.1c0.7-0.1,1.4-0.1,2-0.2c0.4,0,0.7-0.1,1-0.1c-3.6,0.5-6.8,0.6-6.8,0.6
		c0.3,0.6,0.4,1.1,0.4,1.6c-0.4,0-0.8,0.1-1.1,0.1c-0.4,0-0.9,0.1-1.3,0.1c-0.4,0-0.9,0-1.3,0c-0.9,0-1.8,0-2.6,0.1
		c-0.9,0-1.7,0-2.6,0c-0.8,0-1.6,0-2.4-0.1c-0.4,0-0.8,0-1.1,0c-0.4,0-0.7-0.1-1-0.1c-0.7-0.1-1.3-0.1-1.8-0.1
		c-0.5-0.1-1-0.1-1.4-0.2c-0.8-0.1-1.2-0.1-1.2-0.1s0.4,0.1,1.2,0.2c0.4,0.1,0.9,0.1,1.4,0.2c0.5,0.1,1.1,0.1,1.8,0.2
		c0.3,0,0.7,0.1,1,0.1c0.4,0,0.7,0.1,1.1,0.1c0.8,0.1,1.6,0.2,2.4,0.2c0.8,0,1.7,0.1,2.6,0.1c0.9,0,1.8,0.1,2.7,0.1
		c0.4,0,0.9,0,1.3,0c0.4,0,0.9,0,1.3,0c0.9,0,1.7,0,2.6-0.1c0.8,0,1.6-0.1,2.4-0.1c0.8-0.1,1.5-0.1,2.2-0.2c1.3-0.1,2.4-0.2,3.2-0.3
		c0,0,0.1,0,0.1,0c-4.3,0.7-9.2,1-9.2,1c0.7,1.1,0.6,2.4,0.5,2.9c-1.7,0.1-3.4,0.1-5.1,0.1c-4.7,0-9.4-0.3-14.1-1
		C33.6,83.4,33.1,82.9,33.1,82.3z M35.3,22.2c0-0.5,0-1,0-1.5c-0.1,0-0.2,0-0.3,0c0,0-0.1,0-0.1,0c-0.5,0-0.8-0.3-0.8-0.8
		c0-0.5,0-1,0-1.5c0,0-0.1,0-0.1,0c-0.5,0-0.8-0.4-0.8-0.9c0-0.5,0-1,0-1.6c0-0.5,0.4-1.1,1-1.1c4.7-0.7,9.4-1,14.1-1
		c3.9,0,7.8,0.2,11.7,0.7c-2.9-0.2-6.7-0.4-6.7-0.4s0.3,1.2-0.4,2.5c-0.4,0-0.9,0-1.3-0.1c-0.4,0-0.9,0-1.3,0c-0.4,0-0.9,0-1.3,0
		c-0.9,0-1.8,0-2.7,0.1c-0.9,0-1.7,0.1-2.6,0.2c-0.8,0-1.6,0.2-2.4,0.2c-0.4,0-0.8,0.1-1.1,0.1c-0.4,0.1-0.7,0.1-1,0.2
		c-0.7,0.1-1.3,0.2-1.8,0.3c-0.5,0.1-1,0.2-1.4,0.3c-0.8,0.2-1.2,0.3-1.2,0.3s0.4-0.1,1.2-0.2c0.4-0.1,0.9-0.1,1.4-0.2
		c0.5-0.1,1.1-0.1,1.8-0.2c0.3,0,0.7-0.1,1-0.1c0.4,0,0.7-0.1,1.1-0.1c0.8-0.1,1.6-0.1,2.4-0.1c0.8,0,1.7-0.1,2.6-0.1
		c0.9,0,1.8,0,2.7,0c0.4,0,0.9,0,1.3,0.1c0.4,0,0.9,0.1,1.3,0.1c0.9,0,1.7,0.1,2.6,0.2c0.8,0.1,1.6,0.2,2.4,0.3
		c0.4,0.1,0.7,0.1,1.1,0.2c-2.4-0.2-4.9-0.4-4.9-0.4s0.1,0.8-0.2,1.7c-0.4,0-0.7,0-1.1-0.1c-0.8,0-1.6,0-2.5,0c-0.8,0-1.6,0-2.5,0
		c-0.8,0-1.6,0.1-2.4,0.1c-0.8,0.1-1.5,0.1-2.2,0.2c-0.7,0.1-1.4,0.2-2,0.3c-0.6,0.1-1.2,0.2-1.7,0.3c-0.5,0.1-0.9,0.2-1.3,0.2
		c-0.7,0.1-1.1,0.2-1.1,0.2s0.4-0.1,1.1-0.2c0.4-0.1,0.8-0.1,1.3-0.2c0.5-0.1,1.1-0.1,1.7-0.2c0.6-0.1,1.3-0.1,2-0.2
		c0.7-0.1,1.4-0.1,2.2-0.1c0.8,0,1.6,0,2.4,0c0.8,0,1.6,0,2.4,0.1c0.8,0,1.6,0.1,2.4,0.1c0.4,0,0.8,0.1,1.2,0.1
		c0.4,0,0.8,0.1,1.2,0.1c0.4,0,0.8,0.1,1.1,0.1c0.4,0.1,0.7,0.1,1.1,0.2c0.6,0.1,1.2,0.2,1.8,0.3c-2.5-0.2-5.6-0.4-5.6-0.4
		s0.1,0.9-0.3,1.9c-1.2,0-2.3-0.1-3.5-0.1c-4,0-8,0.2-11.9,0.7c0,0-0.1,0-0.1,0C35.7,23,35.3,22.7,35.3,22.2z M48.2,2
		C48.2,2,48.2,2,48.2,2C48.2,2,48.2,2,48.2,2c5.1,0,9.6,2.8,12,6.6c-4.5-5.7-11.9-6-11.9-6c4.8,1.6,7.1,2.9,0.7,4
		c-2.3,0.4-2,1.9-1.5,3.1c0.3,0,0.6,0,0.9,0.1c0.7,0.1,1.4,0.1,2,0.2c0.7,0.1,1.3,0.1,2,0.2c0.6,0.1,1.3,0.2,1.8,0.2
		c0.6,0.1,1.1,0.2,1.6,0.2c1,0.1,1.9,0.3,2.5,0.4c0.6,0.1,0.9,0.2,0.9,0.2s-0.3,0-0.9-0.1c-0.6-0.1-1.4-0.1-2.5-0.2
		c-0.5,0-1.1-0.1-1.7-0.1c-0.6,0-1.2-0.1-1.8-0.1c-0.6,0-1.3,0-2-0.1c-0.7,0-1.4,0-2,0c-0.4,0-0.7,0-1.1,0c-0.2,0-0.5,0-0.7,0
		c-0.8,0-1.6,0.1-2.4,0.2c-0.8,0-1.5,0.1-2.2,0.2c-0.4,0-0.7,0.1-1,0.1c-0.3,0-0.7,0.1-1,0.1c-0.6,0.1-1.2,0.2-1.7,0.3
		c-0.5,0.1-0.9,0.2-1.3,0.3C36.2,12,35.8,12,35.8,12s0.4-0.1,1.1-0.2c0.4-0.1,0.8-0.1,1.3-0.2c0.5-0.1,1.1-0.1,1.7-0.2
		c0.3,0,0.6-0.1,1-0.1c0.3,0,0.7,0,1-0.1c0.7-0.1,1.5-0.1,2.2-0.1c0.8,0,1.6-0.1,2.4-0.1c0.4,0,0.8,0,1.2,0c0.4,0,0.8,0,1.2,0
		c0.8,0,1.7,0.1,2.5,0.1c0.8,0,1.6,0.1,2.4,0.2c0.8,0.1,1.5,0.1,2.2,0.2c0.7,0.1,1.4,0.2,2,0.3c1.2,0.2,2.2,0.3,2.9,0.5
		c0.3,0.1,0.6,0.1,0.8,0.1c0.1,0.4,0.2,0.8,0.2,1.2c-4.6-0.7-9.2-1-13.8-1c-4.6,0-9.2,0.3-13.8,1C35.1,7.7,41,2,48.2,2z M58.7,74.4
		l-1-30.4l0-0.4L57.4,52l-0.3,8.1l-0.3,10.3l-0.1,2.5c-0.1,0-0.2,0.1-0.4,0.1c-0.5,0.1-1.2,0.2-2.1,0.4c-0.2,0-0.4,0.1-0.6,0.1
		c-0.3,0-0.5,0.1-0.8,0.1c-0.5,0.1-1,0.1-1.6,0.2c-0.6,0.1-1.1,0.1-1.7,0.2c-0.6,0-1.2,0.1-1.8,0.1c-0.6,0-1.2,0.1-1.8,0.1
		c-0.3,0-0.6,0-0.9,0c-0.1,0-0.3,0-0.4,0c-0.1,0-0.3,0-0.4,0c-0.3,0-0.6,0-0.8,0c-0.3,0-0.5,0-0.8,0c-0.5,0-1,0-1.4-0.1
		c-0.4,0-0.9-0.1-1.2-0.1c-0.4,0-0.7-0.1-0.9-0.1C38.5,74,38.2,74,38.2,74s0.3,0.1,0.8,0.2c0.3,0.1,0.6,0.1,0.9,0.2
		c0.4,0.1,0.8,0.1,1.2,0.2c0.4,0.1,0.8,0.1,1.2,0.2c-1.6-0.1-3.2-0.2-4.8-0.4V24c1.5-0.2,3.1-0.3,4.6-0.4c0.5,0,1.1-0.1,1.6-0.1
		c-0.4,0.1-0.8,0.1-1.2,0.2c-0.2,0-0.4,0.1-0.6,0.1c-0.3,0-0.6,0.1-0.9,0.1C40.7,24,40.3,24,40,24.1c-0.4,0.1-0.7,0.1-0.9,0.2
		c-0.5,0.1-0.8,0.2-0.8,0.2s0.3,0,0.8-0.1c0.3,0,0.6-0.1,0.9-0.1c0.4,0,0.8-0.1,1.2-0.1c0.1,0,0.3,0,0.4,0c0.3,0,0.7,0,1.1,0
		c0.5,0,1.1,0,1.6,0c0.6,0,1.1,0,1.7,0c0.6,0,1.2,0,1.8,0.1c0.6,0,1.2,0.1,1.8,0.1c0.2,0,0.4,0,0.6,0c0.4,0,0.8,0.1,1.2,0.1
		c0.6,0.1,1.1,0.1,1.6,0.2c0.5,0.1,1,0.1,1.4,0.2c0.9,0.1,1.6,0.2,2.1,0.3c0.1,0,0.2,0,0.3,0.1c0.1,0,0.2,0,0.3,0l0.5,8.9l0.2,4.2
		l0.8-14.5c0.1,0,0.2,0,0.3,0v50.4C58.8,74.4,58.7,74.4,58.7,74.4z"/>
	<path fill="#3F3F3F" d="M36.9,81.3c0.5,0.1,1.2,0.2,1.8,0.3c0.7,0.1,1.4,0.2,2.1,0.2c0.4,0,0.7,0,1.1,0.1c0.4,0,0.7,0,1,0
		c0.7,0,1.3,0,1.9,0c0.5,0,1-0.1,1.3-0.1c0.3,0,0.5,0,0.5,0s-0.2,0-0.5,0c-0.3,0-0.8,0-1.3-0.1c-0.5,0-1.2-0.1-1.8-0.1
		c-0.7,0-1.4-0.1-2.1-0.2c-0.4,0-0.7-0.1-1.1-0.1c-0.4,0-0.7-0.1-1-0.1c-0.7-0.1-1.3-0.1-1.8-0.2c-0.5-0.1-1-0.1-1.3-0.1
		c-0.3,0-0.5-0.1-0.5-0.1s0.2,0.1,0.5,0.1C35.9,81,36.4,81.2,36.9,81.3z"/>
	<path fill="#3F3F3F" d="M37.3,78.3c-0.3,0-0.4,0-0.4,0S37.1,78.3,37.3,78.3c0.3,0.1,0.7,0.2,1.1,0.3c0.5,0.1,1,0.2,1.6,0.3
		c0.6,0.1,1.2,0.1,1.9,0.2c0.3,0,0.6,0,1,0.1c0.3,0,0.6,0,0.9,0c0.6,0,1.2,0,1.7,0c0.5,0,0.9-0.1,1.2-0.1c0.3,0,0.4,0,0.4,0
		s-0.2,0-0.4,0c-0.3,0-0.7,0-1.2-0.1c-0.5,0-1-0.1-1.6-0.1c-0.6,0-1.2-0.1-1.9-0.1c-1.3-0.1-2.6-0.2-3.5-0.3
		C38,78.4,37.6,78.3,37.3,78.3z"/>
	<path fill="#3F3F3F" d="M43.5,16.1c-0.4,0-0.9,0-1.4,0c-0.5,0-1.1,0.1-1.6,0.1c-0.5,0.1-1.1,0.1-1.6,0.2c-0.5,0.1-1,0.2-1.4,0.3
		c-0.4,0.1-0.7,0.2-1,0.2c-0.2,0.1-0.4,0.1-0.4,0.1s0.1,0,0.4,0c0.2,0,0.6-0.1,1-0.1c0.4-0.1,0.9-0.1,1.4-0.2c0.5-0.1,1-0.1,1.6-0.2
		c0.5-0.1,1.1-0.1,1.6-0.1c0.5,0,1-0.1,1.4-0.1c0.4,0,0.7-0.1,1-0.1c0.2,0,0.4,0,0.4,0s-0.1,0-0.4,0C44.3,16.2,44,16.1,43.5,16.1z"
		/>
	<path fill="#3F3F3F" d="M38.9,19.6c0.4-0.1,0.8-0.1,1.2-0.1c0.4-0.1,0.9-0.1,1.4-0.1c0.5-0.1,1-0.1,1.4-0.1c0.4,0,0.9-0.1,1.2-0.1
		c0.4,0,0.7,0,0.9-0.1c0.2,0,0.3,0,0.3,0s-0.1,0-0.3,0c-0.2,0-0.5,0-0.9,0c-0.4,0-0.8,0-1.2,0c-0.5,0-0.9,0.1-1.4,0.1
		c-0.5,0.1-1,0.1-1.4,0.2c-0.4,0.1-0.9,0.2-1.2,0.2c-0.4,0.1-0.6,0.2-0.8,0.2c-0.2,0.1-0.3,0.1-0.3,0.1s0.1,0,0.3,0
		C38.2,19.7,38.5,19.6,38.9,19.6z"/>
	<path fill="#3F3F3F" d="M40.6,22.1c0.4,0,0.8-0.1,1.2-0.1c0.4,0,0.8-0.1,1.2-0.1c0.4,0,0.8-0.1,1.1-0.1c0.3,0,0.6,0,0.8,0
		c0.2,0,0.3,0,0.3,0s-0.1,0-0.3,0c-0.2,0-0.5,0-0.8-0.1c-0.3,0-0.7,0-1.1,0c-0.4,0-0.8,0-1.3,0.1c-0.4,0-0.9,0.1-1.2,0.1
		c-0.4,0.1-0.8,0.1-1.1,0.2c-0.3,0.1-0.6,0.1-0.8,0.2c-0.2,0.1-0.3,0.1-0.3,0.1s0.1,0,0.3,0c0.2,0,0.5,0,0.8-0.1
		C39.9,22.2,40.3,22.1,40.6,22.1z"/>
	<path fill="#3F3F3F" d="M37.4,10.5c0,0,0.1,0,0.4-0.1c0.2,0,0.5-0.1,0.9-0.2c0.4-0.1,0.8-0.1,1.3-0.2c0.5-0.1,1-0.1,1.5-0.2
		c0.5-0.1,1-0.1,1.5-0.1c0.5,0,0.9-0.1,1.3-0.1c0.4,0,0.7,0,0.9,0c0.2,0,0.4,0,0.4,0s-0.1,0-0.4,0c-0.2,0-0.6-0.1-0.9-0.1
		c-0.4,0-0.8,0-1.3,0c-0.5,0-1,0-1.5,0.1c-0.5,0.1-1,0.1-1.5,0.2c-0.5,0.1-0.9,0.2-1.3,0.3c-0.4,0.1-0.7,0.2-0.9,0.3
		C37.5,10.4,37.4,10.5,37.4,10.5z"/>
	<path fill="#3F3F3F" d="M41.8,76.6c0.4,0,0.8,0.1,1.3,0.1c0.4,0,0.9,0,1.3,0c0.4,0,0.8,0,1.1,0c0.3,0,0.6,0,0.8,0
		c0.2,0,0.3,0,0.3,0s-0.1,0-0.3,0c-0.2,0-0.5-0.1-0.8-0.1c-0.3,0-0.7-0.1-1.1-0.1c-0.4,0-0.8-0.1-1.3-0.1c-0.4,0-0.9,0-1.3,0
		c-0.4,0-0.8,0-1.1,0c-0.3,0-0.6,0-0.8,0c-0.2,0-0.3,0-0.3,0s0.1,0,0.3,0c0.2,0,0.5,0.1,0.8,0.1C41,76.5,41.4,76.6,41.8,76.6z"/>
</g>
</svg>
